<?xml version="1.0" encoding="utf-8"?>
<svg width="124px" height="124px" viewBox="0 0 124 124" version="1.1" xmlns:xlink="http://www.w3.org/1999/xlink" xmlns="http://www.w3.org/2000/svg">
  <defs>
    <path d="M0 0L124 0L124 124L0 124L0 0Z" id="path_1" />
    <clipPath id="mask_1">
      <use xlink:href="#path_1" />
    </clipPath>
  </defs>
  <g id="Delete-Icon">
    <path d="M0 0L124 0L124 124L0 124L0 0Z" id="Background" fill="#FFFFFF" fill-opacity="0" fill-rule="evenodd" stroke="none" />
    <g clip-path="url(#mask_1)">
      <path d="M61.9354 10.2768C59.6558 10.3124 57.8354 12.187 57.8667 14.4667L57.8667 16.5333L35.1333 16.5333C34.0274 16.5183 32.9615 16.9471 32.1741 17.7239C31.3867 18.5007 30.9435 19.5606 30.9435 20.6667L24.8 20.6667C23.3094 20.6456 21.9229 21.4287 21.1714 22.7163C20.4199 24.0038 20.4199 25.5962 21.1714 26.8837C21.9228 28.1712 23.3094 28.9544 24.8 28.9333L99.2 28.9333C100.691 28.9544 102.077 28.1712 102.829 26.8837C103.58 25.5962 103.58 24.0038 102.829 22.7163C102.077 21.4287 100.691 20.6456 99.2 20.6667L93.0565 20.6667C93.0565 19.5606 92.6133 18.5007 91.8259 17.7239C91.0385 16.9472 89.9726 16.5183 88.8667 16.5333L66.1333 16.5333L66.1333 14.4667C66.1486 13.3494 65.711 12.2736 64.9202 11.4843C64.1293 10.6949 63.0526 10.2594 61.9354 10.2768L61.9354 10.2768ZM24.8 37.2L32.2109 100.169C32.6987 104.331 36.2218 107.467 40.413 107.467L83.587 107.467C87.7782 107.467 91.2972 104.331 91.789 100.169L99.2 37.2L24.8 37.2L24.8 37.2Z" id="Shape" fill="#FFFFFF" fill-rule="evenodd" stroke="none" />
    </g>
  </g>
</svg>